<svg xmlns="http://www.w3.org/2000/svg" viewBox="0 0 80.59 80.59"><defs><style>.cls-1{fill:none;stroke:#231f20;stroke-miterlimit:10;}.cls-1,.cls-2,.cls-3{opacity:0.61;}.cls-2{fill:#b5b7b7;}.cls-3{fill:#a4a6a6;}</style></defs><title>anti-aging</title><g id="Layer_2" data-name="Layer 2"><g id="Layer_103" data-name="Layer 103"><circle class="cls-1" cx="40.29" cy="40.29" r="39.79"/><path class="cls-2" d="M56.89,28.94a.42.42,0,0,1-.26-.08.28.28,0,0,1,0-.44l3.23-3.08a20.58,20.58,0,0,0-2.64-1.73,16.2,16.2,0,0,0-10.1-2,15.38,15.38,0,0,0-8.36,4,16.38,16.38,0,0,0-1.88,2.1,17.44,17.44,0,0,0-1.23,1.85,5.16,5.16,0,0,0-.75,1.91,11.92,11.92,0,0,0,0,1.34,5.84,5.84,0,0,1-.3,2.44h0a7,7,0,0,1-1.42,2h0a5,5,0,0,0-1.46,2.43v0a30.65,30.65,0,0,0-.18,7,27.5,27.5,0,0,0,1.39,6.64,12,12,0,0,0,1.4,3,8.12,8.12,0,0,0,2.59,2.24,9,9,0,0,0,3.09,1.21,8.8,8.8,0,0,0,3.79-.22L44,56.43h0a.28.28,0,0,1,.15-.22.39.39,0,0,1,.51.06L47,59a23.42,23.42,0,0,0,2.62-.72,10.81,10.81,0,0,0,2.6-1.32l-1.21-3.59a.31.31,0,0,1,0-.23.39.39,0,0,1,.49-.14l4,1.69a18.81,18.81,0,0,0,4.79-5.06,16.78,16.78,0,0,0,2.46-8.5l-4.28-2.34a.31.31,0,0,1-.18-.21.32.32,0,0,1,.28-.37l4.44-.75A14.57,14.57,0,0,0,62,29ZM35.17,35.5a1.22,1.22,0,0,0,.1-.23,2.41,2.41,0,0,0,.14-.59l.06-.36a1.6,1.6,0,0,1,.46-.9,1.8,1.8,0,0,1,1.48-.32l.38.07.34.12a2.58,2.58,0,0,1,1.2.83,1.21,1.21,0,0,1,.25.72,1.42,1.42,0,0,1-.18.69,2.68,2.68,0,0,1-1.1,1,5.46,5.46,0,0,1-1.82.44h0l-.41,0h0c-.81,0-1.08-.26-1.09-.69A2.33,2.33,0,0,1,35.17,35.5ZM34,42.15a1.92,1.92,0,0,1-.62-.52.56.56,0,0,1-.12-.46.57.57,0,0,1,.27-.36l.09-.05c.33-.25.63-.48.94-.7a11.23,11.23,0,0,0,2.48-2.2.41.41,0,0,1,.5-.09.28.28,0,0,1,.1.43A11.44,11.44,0,0,1,35,40.53L35,40.6A5.86,5.86,0,0,1,38,41.82a9.92,9.92,0,0,0,1.39.81h0c.51.23.77.15.92-.09a3.81,3.81,0,0,0,.38-1.1A3.64,3.64,0,0,1,41.27,40a.66.66,0,0,1,.29-.24.52.52,0,0,1,.3,0,.5.5,0,0,1,.28.14.51.51,0,0,1,.16.36v0L42,44.68v0a1.25,1.25,0,0,1-.43.9,1.6,1.6,0,0,1-1.56,0h0a15.44,15.44,0,0,0-2.83-.82,8.92,8.92,0,0,0-2.93,0h-.08c-.67,0-.9-.36-.88-.84A4.52,4.52,0,0,1,34,42.15Zm8.27,8.65a6.8,6.8,0,0,1-1.61.38h0a17.34,17.34,0,0,1-5.1.07,4,4,0,0,1-2.84-1.53,2.12,2.12,0,0,1,.17-2.37,2.41,2.41,0,0,1,.92-.68,3.72,3.72,0,0,1,2-.22,18.92,18.92,0,0,1,4.09,1.26,8.64,8.64,0,0,1,2.85,1.74C43.3,50.09,42.94,50.52,42.28,50.8ZM54.75,39.85a1.17,1.17,0,0,1-.27.15,3,3,0,0,1-.76.19,14.53,14.53,0,0,1-5-.72c-1.81-.54-3.43-1.32-3.86-2a1.1,1.1,0,0,1-.12-.33h0a1.31,1.31,0,0,1,.19-.93,2.51,2.51,0,0,1,.82-.76A5.65,5.65,0,0,1,50,34.75a9.05,9.05,0,0,1,4.31,2.5,4.25,4.25,0,0,1,.58.76,2.09,2.09,0,0,1,.31,1A1,1,0,0,1,54.75,39.85ZM58.88,48a8.91,8.91,0,0,0,1.22-2.19,8,8,0,0,0,.5-2.37h0a.22.22,0,0,1,.24-.19.22.22,0,0,1,.22.21A8.74,8.74,0,0,1,60.53,46a9.2,9.2,0,0,1-1.27,2.29.24.24,0,0,1-.31.05A.17.17,0,0,1,58.88,48Z"/><path class="cls-3" d="M25.74,26.15,29,25.76l-3.23-.39a2.49,2.49,0,0,1-2.17-2.18L23.18,20l-.39,3.23a2.51,2.51,0,0,1-2.18,2.18l-3.23.39,3.23.39a2.5,2.5,0,0,1,2.18,2.17l.39,3.24.39-3.24A2.48,2.48,0,0,1,25.74,26.15Z"/><path class="cls-3" d="M25.63,32.53l-.24-2-.25,2a1.53,1.53,0,0,1-1.35,1.35l-2,.25,2,.24a1.53,1.53,0,0,1,1.35,1.35l.25,2,.24-2A1.53,1.53,0,0,1,27,34.37l2-.24-2-.25A1.53,1.53,0,0,1,25.63,32.53Z"/></g></g></svg>