<svg xmlns="http://www.w3.org/2000/svg" viewBox="0 0 80.59 80.59"><defs><style>.cls-1{isolation:isolate;}.cls-2{opacity:0.61;}.cls-3,.cls-4{fill:#b5b7b7;}.cls-4{mix-blend-mode:multiply;}.cls-5{fill:none;stroke:#231f20;stroke-miterlimit:10;}</style></defs><title>brain</title><g class="cls-1"><g id="Layer_2" data-name="Layer 2"><g id="Layer_103" data-name="Layer 103"><g class="cls-2"><path class="cls-3" d="M57.33,32.15c-.57-3.43-3.19-3.35-3.68-6.13s-2.37-2-3.51-4.74-4.74-2.94-4.74-2.94a3.18,3.18,0,0,0-3.86-.86,4.87,4.87,0,0,0-.72.36c-.12.08-.19.08-.37,0a4.87,4.87,0,0,0-.72-.36,3.16,3.16,0,0,0-3.85.86s-3.6.24-4.74,2.94-3,2-3.52,4.74-3.1,2.7-3.68,6.13-2.45,5.23-1.39,8.25-.4,6.05,1,8.09-.08,4.25,2.29,5.56c0,0,.49,5.8,8.09,6.62,0,0,3.17,2.47,6.27.21l.27-.21a.28.28,0,0,1,.19-.08.51.51,0,0,1,.18.08l.27.21c3.1,2.26,6.27-.21,6.27-.21,7.6-.82,8.09-6.62,8.09-6.62,2.37-1.31.9-3.51,2.29-5.56s-.08-5.06,1-8.09S57.9,35.58,57.33,32.15Z"/><path class="cls-4" d="M35.5,21.8s-1,3.43,1.41,3.68c0,0-2.48.24-2.45-1.29S34.89,22.14,35.5,21.8Z"/><path class="cls-4" d="M32,28.5s-1,3.43,1.41,3.68c0,0-2.48.24-2.45-1.29S31.37,28.84,32,28.5Z"/><path class="cls-4" d="M25.18,35.51s2.51,2.55,3.9.56c0,0-1,2.28-2.32,1.51S25.18,36.21,25.18,35.51Z"/><path class="cls-4" d="M33.73,46.62s2.51,2.56,3.9.56c0,0-1,2.29-2.32,1.52S33.73,47.32,33.73,46.62Z"/><path class="cls-4" d="M26.12,49.11s3.58.13,3.22-2.27c0,0,.85,2.34-.64,2.69S26.6,49.62,26.12,49.11Z"/><path class="cls-4" d="M36.72,30.71s-1,3.43,1.41,3.68c0,0-2.48.24-2.45-1.29S36.11,31.05,36.72,30.71Z"/><path class="cls-4" d="M34.81,40.16c-1.22-1.39-5.39-.9-6.7,0a14.36,14.36,0,0,1,4.62-.28c-.11.78-.54,2.5-2.1,2.55A2.28,2.28,0,0,0,33.23,40a1.73,1.73,0,0,1,.68.4c1.23,1.29,2.13,4.4,5.81.72C39.72,41.14,36,41.55,34.81,40.16Z"/><path class="cls-4" d="M33.28,51.61c-.62.34-1,.86-1,2.39h0c-1.59.75-4.13-.18-4.13-.18,1.68,2.25,3.28,1.33,4.16.46.27,1.21,2.42,1,2.42,1C32.27,55.05,33.28,51.61,33.28,51.61Z"/><path class="cls-4" d="M45.77,21.8s1,3.43-1.41,3.68c0,0,2.49.24,2.46-1.29S46.39,22.14,45.77,21.8Z"/><path class="cls-4" d="M49.29,28.5s1,3.43-1.41,3.68c0,0,2.48.24,2.45-1.29S49.9,28.84,49.29,28.5Z"/><path class="cls-4" d="M56.09,35.51s-2.51,2.55-3.9.56c0,0,1,2.28,2.32,1.51S56.09,36.21,56.09,35.51Z"/><path class="cls-4" d="M47.54,46.62s-2.51,2.56-3.9.56c0,0,1,2.29,2.32,1.52S47.54,47.32,47.54,46.62Z"/><path class="cls-4" d="M55.15,49.11s-3.57.13-3.21-2.27c0,0-.86,2.34.64,2.69S54.67,49.62,55.15,49.11Z"/><path class="cls-4" d="M44.55,30.71s1,3.43-1.41,3.68c0,0,2.48.24,2.45-1.29S45.16,31.05,44.55,30.71Z"/><path class="cls-4" d="M46.46,40.16c1.22-1.39,5.39-.9,6.7,0a14.36,14.36,0,0,0-4.62-.28c.12.78.54,2.5,2.11,2.55A2.29,2.29,0,0,1,48,40a1.8,1.8,0,0,0-.68.4c-1.23,1.29-2.13,4.4-5.81.72C41.55,41.14,45.23,41.55,46.46,40.16Z"/><path class="cls-4" d="M48,51.61c.61.34,1,.86,1,2.39h0c1.58.75,4.12-.18,4.12-.18-1.68,2.25-3.28,1.33-4.15.46-.28,1.21-2.43,1-2.43,1C49,55.05,48,51.61,48,51.61Z"/><path class="cls-4" d="M40.82,57.73s.24-38.17.33-39a2.87,2.87,0,0,1,.39-1.26,4.87,4.87,0,0,0-.72.36c-.12.08-.19.08-.37,0a4.87,4.87,0,0,0-.72-.36,3,3,0,0,1,.4,1.26c.08.82.32,39,.32,39s-1.52,2.54-4.33,0c0,0,1.47,3.35,4.33,1.88,0,0,0,1-.27,1.27l.27-.21a.28.28,0,0,1,.19-.08.51.51,0,0,1,.18.08l.27.21c-.31-.22-.27-1.27-.27-1.27,2.86,1.47,4.33-1.88,4.33-1.88C42.34,60.27,40.82,57.73,40.82,57.73Z"/><circle class="cls-5" cx="40.29" cy="40.29" r="39.79"/></g></g></g></g></svg>