<svg xmlns="http://www.w3.org/2000/svg" viewBox="0 0 80.59 80.59"><defs><style>.cls-1{isolation:isolate;}.cls-2{opacity:0.61;}.cls-3{fill:none;stroke:#231f20;stroke-miterlimit:10;}.cls-4,.cls-5{fill:#b5b7b7;}.cls-4{mix-blend-mode:multiply;}</style></defs><title>digestion</title><g class="cls-1"><g id="Layer_2" data-name="Layer 2"><g id="Layer_103" data-name="Layer 103"><g class="cls-2"><circle class="cls-3" cx="40.29" cy="40.29" r="39.79"/><path class="cls-4" d="M23.46,46.94c-1.1.27-2.05.53-2.83.76v2.42a22.53,22.53,0,0,0,2.84,4.42Z"/><path class="cls-5" d="M60.76,28.89a6.93,6.93,0,0,0-.7-1.24c-3-4.08-10.69-7.3-13.24-3.57a28.19,28.19,0,0,1-2.08-12.56c0-.3-1.05-.54-2.36-.54s-2.37.24-2.37.54l0,0c0,.72.91,12.32,3,16.18a4.93,4.93,0,0,0-.77,4.34c.68,2.71.94,9.25-1.61,11.12S34.23,46.31,31.56,47l-.42.11a3.27,3.27,0,0,0-1.35.83c-1.67-.57-5.35-1.58-8-.43-3.57,1.53-6.45,7.93-2.29,13.65h0s0,0,0,0c0,.3,1,.54,2.29.54s2.28-.24,2.28-.54c0,0,0,0,0,0h0l0,0a.19.19,0,0,0-.06-.07c-.52-.63-3.27-4.11-2.19-7s3.56-3,5.49-2c-.87,3-.13,6.49,5.29,8.05,10,2.89,22.49-.4,26.61-8.52C62.93,44.23,63,33.76,60.76,28.89Z"/><path class="cls-4" d="M19.48,61.2c0-.3,1-.54,2.29-.54s2.28.24,2.28.54-1,.54-2.28.54S19.48,61.5,19.48,61.2Z"/><path class="cls-4" d="M40,11.52c0-.3,1.06-.54,2.37-.54s2.36.24,2.36.54-1.05.54-2.36.54S40,11.82,40,11.52Z"/><path class="cls-4" d="M49.91,24.08c2,0,8.47,1.51,10.85,4.81a6.93,6.93,0,0,0-.7-1.24c-3-4.08-10.69-7.3-13.24-3.57a11.62,11.62,0,0,1-1.66,2.17S47.88,24,49.91,24.08Z"/></g></g></g></g></svg>