<svg xmlns="http://www.w3.org/2000/svg" viewBox="0 0 80.59 80.59"><defs><style>.cls-1{isolation:isolate;}.cls-2{opacity:0.61;}.cls-3{fill:none;stroke:#231f20;stroke-miterlimit:10;}.cls-4,.cls-5{fill:#b5b7b7;}.cls-5{mix-blend-mode:multiply;}</style></defs><title>eyes</title><g class="cls-1"><g id="Layer_2" data-name="Layer 2"><g id="Layer_103" data-name="Layer 103"><g class="cls-2"><circle class="cls-3" cx="40.29" cy="40.29" r="39.79"/><path class="cls-4" d="M64.88,40.43C62.05,37.88,57,29,43.55,27.49a37.22,37.22,0,0,0-4.07-.23,29.89,29.89,0,0,0-9.12,1.37A29.52,29.52,0,0,0,13.78,42.44a7.47,7.47,0,0,1,3.56,2C18.73,46,39,64.58,62.56,45.53,64.07,44.31,68,43.21,64.88,40.43ZM39,37.39a1.22,1.22,0,1,1-1.22-1.22A1.22,1.22,0,0,1,39,37.39Zm19.49,5a3.67,3.67,0,0,0,.81,1.74s-21.91,9-31.93,4.65S15.64,41.7,15.64,41.7a39.44,39.44,0,0,1,11-7.35c-.09.31-.17.63-.23.95a11.18,11.18,0,0,0-.23,2.26,11.61,11.61,0,1,0,22.36-4.34c-.09-.21-.17-.43-.27-.64a21.85,21.85,0,0,1,11.63,8.08S58.26,41.24,58.49,42.4Z"/><path class="cls-5" d="M32.82,50.94c2,.31,16.57.08,25.71-5.19,0,0-4.57,4.36-13.09,5.28S32.82,50.94,32.82,50.94Z"/><path class="cls-5" d="M47.06,29.71c-1.78-.33-14.74-.52-23,3.92,0,0,4.18-3.76,11.79-4.34S47.06,29.71,47.06,29.71Z"/><path class="cls-5" d="M39.92,32.46l1,0a36.29,36.29,0,0,1,7.62.78c-.09-.21-.17-.43-.27-.64a28,28,0,0,0-8.35-1.21,32.38,32.38,0,0,0-13.28,3c-.09.31-.17.63-.23.95A41.66,41.66,0,0,1,34.75,33a5.34,5.34,0,1,0,5.17-.5Zm-2.14,6.15A1.22,1.22,0,1,1,39,37.39,1.22,1.22,0,0,1,37.78,38.61Z"/></g></g></g></g></svg>