<svg xmlns="http://www.w3.org/2000/svg" viewBox="0 0 80.59 80.59"><defs><style>.cls-1{fill:none;stroke:#231f20;}.cls-1,.cls-3{stroke-miterlimit:10;}.cls-1,.cls-2,.cls-3{opacity:0.61;}.cls-2{fill:#a4a6a6;}.cls-3{fill:#b5b7b7;stroke:#95979a;stroke-width:0.5px;}</style></defs><title>heart</title><g id="Layer_2" data-name="Layer 2"><g id="Layer_103" data-name="Layer 103"><circle class="cls-1" cx="40.29" cy="40.29" r="39.79"/><path class="cls-2" d="M35,59.26c-1.64-.83-3.4-1.42-5-2.25,0,1.78.06,3.63.09,5.39a.25.25,0,0,0,0,.1,1.3,1.3,0,0,0,.55,1l0,0a1.92,1.92,0,0,0,.34.27,4,4,0,0,0,2.05.5c.49,0,2-.07,1.95-.84a.32.32,0,0,0,.12-.17A20.83,20.83,0,0,0,35,60.17C35,59.87,35,59.57,35,59.26Zm-.56,4.36a3.42,3.42,0,0,1-1.93.15,2.38,2.38,0,0,1-1.92-1.06c0-.26.32-.41.61-.4s.63,0,.95.07.71,0,1,.09a3.29,3.29,0,0,1,.77.24C34.17,62.79,35,63.31,34.47,63.62Z"/><path class="cls-2" d="M50.14,60.81c-1.64-.82-3.4-1.44-5-2.27,0,1.81.07,3.63.09,5.4,0,.06,0,.09,0,.11a1.16,1.16,0,0,0,.53.94h0a1.59,1.59,0,0,0,.34.28,3.8,3.8,0,0,0,2,.49c.49,0,2-.07,2-.83a.28.28,0,0,0,.12-.18,20.88,20.88,0,0,0-.12-3.06C50.13,61.4,50.14,61.11,50.14,60.81Zm-.57,4.35a3.47,3.47,0,0,1-1.92.14,2.34,2.34,0,0,1-1.93-1c0-.24.33-.42.61-.41s.63,0,.94.07S48,64,48.34,64a3.28,3.28,0,0,1,.77.21C49.28,64.32,50.06,64.87,49.57,65.16Z"/><path class="cls-3" d="M58.27,38.83c-.17-.36-.7-.9-1.12-.54-.2.16-.3.42-.5.57a1.93,1.93,0,0,1-.21.17,9.58,9.58,0,0,1,.66,2.13c0,.09-.12.16-.15.07a23.15,23.15,0,0,0-2.19-4.5l-.06.07a.12.12,0,0,1,0,.12,6.91,6.91,0,0,1-.52.63A4.53,4.53,0,0,0,54.67,41c.47.74,1.14,1.35,1.6,2.09s1.13,1.89.48,2.68c-.08.07-.22,0-.16-.1.88-1.51-1.54-3.38-2.15-4.47a5,5,0,0,1-.75-2.87c-.21.4-.42.81-.59,1.23a3.1,3.1,0,0,0,0,2.58A7.43,7.43,0,0,1,53.55,44a7.36,7.36,0,0,1-.16,3.43c-.09,1.58,1,2.84,1.1,4.35l.31.9A5.89,5.89,0,0,0,56.46,55c.07.07,0,.16-.11.13a4.3,4.3,0,0,1-1.72-2.32,24.87,24.87,0,0,1,.9,3.47,7.61,7.61,0,0,1-.59,3.56.08.08,0,1,1-.14-.06,7.32,7.32,0,0,0,.42-4.48,17,17,0,0,1-.76-2.56,9.88,9.88,0,0,1-1.11,2.83c-.05.13-.25.07-.18,0a9.91,9.91,0,0,0,1-2.41,4.75,4.75,0,0,0-.47-2.65,5.83,5.83,0,0,1-.6-2.32,10.09,10.09,0,0,0-.52,1,5.55,5.55,0,0,0-.2,2.71c0,.12-.19.18-.21,0a6.8,6.8,0,0,1,0-2.25A8.12,8.12,0,0,1,53,48a5.85,5.85,0,0,0-.15-5.37,2.14,2.14,0,0,1-.2-.4,2.55,2.55,0,0,1-1.27.75,3.16,3.16,0,0,0-1.16.71.08.08,0,0,1-.06.09h0a3.54,3.54,0,0,0-1,2.38c0,.06-.14.1-.14,0a4,4,0,0,1,.81-2.4,2,2,0,0,0-.74,0c-.38.11-.73.31-1.1.44a.05.05,0,0,1,0-.1A9.28,9.28,0,0,1,49,43.67a3,3,0,0,1,.9-.06.86.86,0,0,1,.13-.14,24.36,24.36,0,0,1,2.47-1.61,3.11,3.11,0,0,1,.21-2.14A13.26,13.26,0,0,1,53.6,38a.85.85,0,0,1-.83-.05,6.11,6.11,0,0,1-.53-.34,11.46,11.46,0,0,0-1.22-1A3.44,3.44,0,0,0,48.43,36c-.12,0-.09-.15,0-.18a2.81,2.81,0,0,1,2.49.31c-.44-.5-.86-1-1.31-1.45,0,0,0-.08,0-.06.83.69,1.59,1.49,2.4,2.21.37.34,1,1.32,1.67.79.31-.28.52-.58.81-.83h0a1.43,1.43,0,0,0,.14-.2A24.91,24.91,0,0,0,52.85,34c-.05-.06,0-.14.1-.07a23.8,23.8,0,0,1,2.9,3.92,8.92,8.92,0,0,1,.7-.92c.35-.42.5-.92.1-1.32A2,2,0,0,0,55,35a2.53,2.53,0,0,0-.49.33,10.08,10.08,0,0,0-1.73-2.5c-.33-.33-.66-.69-1-1.05,1.43,0,3.48.25,4.33,1.34a.31.31,0,0,0,.5-.11c.27-.46,1-1.37.36-1.87a9.11,9.11,0,0,0-1-.65c-.78-.49.57-.27.94-.22.18,0,.33-.18.34-.34,0-.48.48-1.61-.09-2a1.72,1.72,0,0,0-.67-.23c-.18,0-1.54-.1-1.12-.29s1-.29,1.17-.83a.66.66,0,0,0-.52-.94,4.29,4.29,0,0,0-2,.33c-1.19.33-2.4.54-3.6.79-.24.06-.47.11-.72.15a6.65,6.65,0,0,0-2.43-4.28l-.17-.13c.11-.71.19-1.44.27-2.14.1-.93-1.12-.78-1.73-.94a.28.28,0,0,0-.32.22c-.06.57-.17,1.16-.27,1.74a9.27,9.27,0,0,0-2.2-.58c0-.39,0-.78-.06-1.16-.11-.91-.75-1-1.53-.94a.3.3,0,0,0-.29.29c0,.59,0,1.18,0,1.75a8.54,8.54,0,0,0-2,.42c-.21.07-.4.16-.61.25,0,0,0-.05,0-.07a6.19,6.19,0,0,0-.18-1.22c-.19-.67-.58-.67-1.12-.39s-1.24.63-1.29,1.25c0,.33.32.75.49,1s.22.34.32.53a11.05,11.05,0,0,0-3.46,4.19,8.19,8.19,0,0,1-2-.07c-1.37-.23-2.5-1.07-3.83-1.34A7.1,7.1,0,0,0,26.17,25c0,.24,0,.46,0,.71s-.13.29-.25.23c-.39-.16-.79-.34-1.21-.47s-.45.37-.58.66c-.55,1.16.45,1.43,1,2.13a.25.25,0,0,1-.2.35c-.41,0-1.78,0-1.88.42s-.16.66-.23,1-.1.47-.18.79a2.89,2.89,0,0,0,2.2,2.09c1.52.41,3.1-.17,4.63-.21a16.28,16.28,0,0,1,1.05,5.46c0,2.91-2.2,5.31-3.22,7.93-1.86,4.69.47,9.67,4.31,12.57,4.51,3.39,10.52,4.15,16,4.76,2.24.24,4.61.54,6.82-.18a5.14,5.14,0,0,0,3.44-4.35c.38-2.22-.07-4.57-.18-6.79a32,32,0,0,1,.11-4.59A18.71,18.71,0,0,0,58,43.29a8.52,8.52,0,0,0-.57-2.18c.24-.25.46-.5.67-.74A1.35,1.35,0,0,0,58.27,38.83ZM33.79,25.48c.07-.1.26-.08.2.08-1.45,3.69.44,8,2.38,11.14.06.08-.08.18-.14.1A15.85,15.85,0,0,1,33.36,31C33,29.17,32.77,27.15,33.79,25.48Zm-7.61,7.07a3.12,3.12,0,0,1-3-2.62s0,0,0,0a3.2,3.2,0,0,0,2.47,2.2,9.68,9.68,0,0,0,2.68-.17c1.34-.18,2.76-.34,3.85.63.07.07,0,.24-.12.18C30.11,31.65,28.26,32.69,26.18,32.55ZM41,27.72a1.29,1.29,0,0,0-.42.76,7,7,0,0,0-.23,1.77,4.55,4.55,0,0,1-.09,1.28,11.19,11.19,0,0,1-2.66,5.74c-1.86,2-3.89,4-4.71,6.71a12.22,12.22,0,0,0,.43,7.87c0,.08-.13.17-.17.06a12.11,12.11,0,0,1-1-5.92,17.24,17.24,0,0,0-.71,2,8.07,8.07,0,0,0-.25,3.42,12,12,0,0,0,3.09,5.66s0,.11-.07.07a16.94,16.94,0,0,1-1.84-2.26,7.85,7.85,0,0,0,.8,3.52s0,.12-.08.06a6.89,6.89,0,0,1-.86-3.78A7.64,7.64,0,0,1,31,49c-.18.35-.29.71-.48,1a7.34,7.34,0,0,1-1.4,1.78c-.06,0-.11,0-.06-.09a6.08,6.08,0,0,0,1.5-2.08,7.45,7.45,0,0,1,.54-1.14c0-.07,0-.14.05-.2a31.24,31.24,0,0,1,1.07-3.18.1.1,0,0,1,.06-.08,12.69,12.69,0,0,1,.38-1.47C33.52,41,35.4,39,37.2,37a9.81,9.81,0,0,0,2.39-4.2c.29-1.26-.06-2.49.25-3.72A2.68,2.68,0,0,1,41,27a4.28,4.28,0,0,1,2.16-.57c.15,0,.08.18,0,.2a5.56,5.56,0,0,0-2.16,1,6.31,6.31,0,0,0,2.45.07,19.24,19.24,0,0,0,2.15-.13A21.53,21.53,0,0,1,49.36,27c.15,0,.09.2,0,.22-.87.16-1.72.24-2.57.46a9.89,9.89,0,0,1-2,.3C43.58,28,42.12,28.27,41,27.72Zm5.52,5.88c-.51.34-1.25.75-1.34,1.42a3.65,3.65,0,0,0,.14,1.44c.14.66.22,1.32.36,2,0,.07-.09.18-.14.09a11.23,11.23,0,0,1-.82-2.86,2,2,0,0,1,.64-1.75,10.29,10.29,0,0,1,6-2.37c.1,0,.09.13,0,.15a16.89,16.89,0,0,0-2.78.7A17.64,17.64,0,0,0,46.48,33.6Z"/></g></g></svg>