<svg xmlns="http://www.w3.org/2000/svg" viewBox="0 0 80.59 80.59"><defs><style>.cls-1{isolation:isolate;}.cls-2,.cls-5{opacity:0.61;}.cls-3,.cls-9{fill:none;stroke-miterlimit:10;}.cls-3{stroke:#231f20;}.cls-4{fill:#c6c6c7;}.cls-5,.cls-6,.cls-7,.cls-8{fill:#b5b7b7;}.cls-5,.cls-7{mix-blend-mode:multiply;}.cls-6{opacity:0.6;}.cls-9{stroke:#949797;stroke-width:0.5px;}</style></defs><title>immune system</title><g class="cls-1"><g id="Layer_2" data-name="Layer 2"><g id="Layer_103" data-name="Layer 103"><g class="cls-2"><circle class="cls-3" cx="40.29" cy="40.29" r="39.79"/><path class="cls-4" d="M35.6,39.5a7.12,7.12,0,0,1-1.1-2.35c-.14-1,0-2-.06-2.94A4,4,0,0,0,34,32.28a1.73,1.73,0,0,0-1.8-.84,6.79,6.79,0,0,0-3.44,1.9,14.8,14.8,0,0,0-2.59,3.15v.11c-.08.16-.16.33-.26.5a8.18,8.18,0,0,0-1.18,4.69,4.57,4.57,0,0,0,1.92,3.58,1.85,1.85,0,0,1,.76,1.13,2.5,2.5,0,0,0,1.05,1.43c.31.23.61.46.93.66a3.27,3.27,0,0,0,2.71.49,5.44,5.44,0,0,0,2.14-1,8.63,8.63,0,0,0,1.75-1.82,9.24,9.24,0,0,0,.72-1.41A5.18,5.18,0,0,0,36.43,41h0Z"/><path class="cls-5" d="M16.06,38.89a7.26,7.26,0,0,0,.31-1.66,18,18,0,0,1,2.14-5.81l.14-.15a1,1,0,0,0,.63.44l0,.3a10,10,0,0,0-1.31,2.69,18.68,18.68,0,0,0-1,7.5,21.53,21.53,0,0,0,.65,3.92,21.28,21.28,0,0,0,3.56,7.16,19.18,19.18,0,0,0,6.3,5.62A22.63,22.63,0,0,0,38,61.43,42.35,42.35,0,0,0,44.51,61,22.06,22.06,0,0,0,50,59.82a21.46,21.46,0,0,0,7.89-5.06A7.36,7.36,0,0,0,60,50.65a29.74,29.74,0,0,0,.23-3.41c.06-2.54.08-5.09.11-7.63a.36.36,0,0,1,0-.09l.82-.22c0,3.51-.07,7-.23,10.54a8.22,8.22,0,0,1-2.39,5.39A21.47,21.47,0,0,1,47.1,61.5a43.71,43.71,0,0,1-6.07.7,31,31,0,0,1-7.45-.32,19.71,19.71,0,0,1-12.22-7A22.72,22.72,0,0,1,16.42,44.8a10.91,10.91,0,0,0-.36-2Z"/><path class="cls-5" d="M19.28,31.71a1,1,0,0,1-.63-.44,20.13,20.13,0,0,1,1.83-3.06,33.94,33.94,0,0,1,5-5.87,25.09,25.09,0,0,1,12.71-6.62,5.17,5.17,0,0,0,1.35-.24H43.1c.69.13,1.38.23,2.07.37a21.64,21.64,0,0,1,8.72,4,21.82,21.82,0,0,1,5,4.93,14.94,14.94,0,0,1,2.75,7.24c0,.06.06.11.09.17v2.91a8.1,8.1,0,0,0-.31,2.07c-.09.69-.13,1.39-.2,2.09l-.82.22c.08-1.08.12-2.17.25-3.25a16.07,16.07,0,0,0,.13-4.38,15,15,0,0,0-4.16-8.46A26.71,26.71,0,0,0,53,20.28a19.23,19.23,0,0,0-13-3.87,20.09,20.09,0,0,0-7.2,1.95,25.73,25.73,0,0,0-5.43,3.51,34.31,34.31,0,0,0-5.57,6C20.87,29.08,20.12,30.42,19.28,31.71Z"/><path class="cls-6" d="M60.35,39.61c0,2.54-.05,5.09-.11,7.63A29.74,29.74,0,0,1,60,50.65a7.36,7.36,0,0,1-2.16,4.11A21.46,21.46,0,0,1,50,59.82,22.06,22.06,0,0,1,44.51,61a42.35,42.35,0,0,1-6.55.46A22.63,22.63,0,0,1,27.48,58.9a19.18,19.18,0,0,1-6.3-5.62,21.28,21.28,0,0,1-3.56-7.16A21.53,21.53,0,0,1,17,42.2a18.68,18.68,0,0,1,1-7.5A10,10,0,0,1,19.24,32c.23,0,.37.13.55.24a16,16,0,0,0,2.36,1.63,1,1,0,0,0,1.09.75l.38.4a.14.14,0,0,1,0,.09,13.17,13.17,0,0,0-1.54,4.81A7.08,7.08,0,0,0,25,47a1.45,1.45,0,0,1,.58.78,5.63,5.63,0,0,0,2.88,3.44A5.08,5.08,0,0,0,33,52a9.66,9.66,0,0,0,6.19-6,7,7,0,0,0,.17-4.33c.3-.12.58.06.87.06.08.65.36,1,.86,1.05s.83-.19,1.07-.83a3.12,3.12,0,0,1,1.29.2,28.51,28.51,0,0,0-1.28,3.71A5.94,5.94,0,0,0,42,48.08a3.14,3.14,0,0,0,2.71,2.79,7.91,7.91,0,0,0,2.9-.34,1,1,0,0,0,.81.64,1,1,0,0,0,1-1.27c1.48-.57,2.92-1.23,4.43-1.74a1.39,1.39,0,0,0,.91-1,3.49,3.49,0,0,0-.21-2,15.18,15.18,0,0,0-2.09-3.86,7.51,7.51,0,0,1,2.19-.51c1-.25,1.92-.39,2.87-.59A18.19,18.19,0,0,1,60.35,39.61ZM27.68,56.28a1,1,0,0,0,0,1.91,1,1,0,1,0,0-1.91ZM57.86,42.15a1,1,0,0,0,0,1.9,1,1,0,1,0,0-1.9ZM28.15,51.91a1,1,0,0,0-.94,1,1,1,0,0,0,1,.92.95.95,0,0,0-.06-1.89ZM50.73,55a1,1,0,0,0,.05-1.9,1,1,0,0,0-1,.93A1,1,0,0,0,50.73,55ZM37,59.53a.94.94,0,1,0-1.88,0,1,1,0,0,0,.91.95A1,1,0,0,0,37,59.53ZM58.43,47.87a1,1,0,0,0,1-1,1,1,0,0,0-.94-.93.95.95,0,0,0,0,1.89Zm-1.57,3.82a.94.94,0,1,0-.94-.92A1,1,0,0,0,56.86,51.69ZM43.8,53.81a1,1,0,0,0-1-1,.95.95,0,0,0,0,1.89A1,1,0,0,0,43.8,53.81ZM19.16,37a.95.95,0,1,0-.93-1A.93.93,0,0,0,19.16,37Zm21.7,12.66a.94.94,0,0,0-.89-1,1,1,0,0,0-1,.91,1,1,0,0,0,1.9,0Zm6.28,9.23a.94.94,0,1,0,0-1.88,1,1,0,0,0-.92,1A1,1,0,0,0,47.14,58.84ZM36.76,53.13a.94.94,0,1,0,0,1.88.94.94,0,0,0,0-1.88Zm-13.55-.72a.92.92,0,0,0-.93.91.9.9,0,0,0,.92,1,.94.94,0,1,0,0-1.88Zm-.57-3.65a1,1,0,0,0,.92-1,.91.91,0,0,0-.95-.89.93.93,0,0,0-.93.92A1,1,0,0,0,22.64,48.76Zm32.1,6.78a1,1,0,0,0-.92-.94.93.93,0,0,0-1,.94.91.91,0,0,0,.9.94A1,1,0,0,0,54.74,55.54ZM33,56.84a.89.89,0,0,0-1-.92.93.93,0,0,0-.92.93,1,1,0,0,0,1,.94A.93.93,0,0,0,33,56.84ZM20.16,41a1,1,0,0,0,1-.89,1,1,0,0,0-.92-1,.9.9,0,0,0-1,.88A1,1,0,0,0,20.16,41ZM41.53,59.89a.94.94,0,0,0,0-1.88,1,1,0,0,0-1,.9A1,1,0,0,0,41.53,59.89Zm-23.09-15a.95.95,0,0,0,1.89.1.95.95,0,0,0-1.89-.1Z"/><path class="cls-7" d="M43.41,42.11l.29-.37c0,.14.06.26.24.27-.12.56-.47,1-.64,1.57a12.06,12.06,0,0,0-.93,4.11,2.76,2.76,0,0,0,2.77,2.75,10.15,10.15,0,0,0,2.4-.34l0,.43a7.91,7.91,0,0,1-2.9.34A3.14,3.14,0,0,1,42,48.08a5.94,5.94,0,0,1,.16-2.26A28.51,28.51,0,0,1,43.41,42.11Z"/><path class="cls-7" d="M52.17,41l.29.26a15.18,15.18,0,0,1,2.09,3.86,3.49,3.49,0,0,1,.21,2,1.39,1.39,0,0,1-.91,1c-1.51.51-3,1.17-4.43,1.74l-.2-.37c1.44-.62,2.89-1.23,4.38-1.74a1,1,0,0,0,.74-1,6,6,0,0,0-.93-3.08c-.45-.82-1-1.59-1.48-2.38Z"/><path class="cls-8" d="M27.68,56.28a1,1,0,1,1,0,1.91,1,1,0,0,1,0-1.91Z"/><path class="cls-8" d="M57.86,42.15a1,1,0,1,1,0,1.9,1,1,0,0,1,0-1.9Z"/><path class="cls-8" d="M28.15,51.91a.95.95,0,0,1,.06,1.89,1,1,0,0,1-1-.92A1,1,0,0,1,28.15,51.91Z"/><path class="cls-8" d="M50.73,55a1,1,0,0,1-.94-1,1,1,0,0,1,1-.93,1,1,0,0,1-.05,1.9Z"/><path class="cls-8" d="M37,59.53a1,1,0,0,1-1,.95,1,1,0,0,1,.06-1.9A1,1,0,0,1,37,59.53Z"/><path class="cls-8" d="M40.19,41.69c.24-.61.58-.87,1.07-.82s.74.35.86,1c-.24.64-.55.88-1.07.83S40.27,42.34,40.19,41.69Z"/><path class="cls-8" d="M58.43,47.87a.95.95,0,0,1,0-1.89,1,1,0,0,1,.94.93A1,1,0,0,1,58.43,47.87Z"/><path class="cls-8" d="M56.86,51.69a1,1,0,0,1-.94-.92.95.95,0,1,1,.94.92Z"/><path class="cls-8" d="M43.8,53.81a1,1,0,0,1-1.9,0,1,1,0,0,1,.93-.94A1,1,0,0,1,43.8,53.81Z"/><path class="cls-8" d="M22.15,33.88c0-.66.25-1.06.79-1.14a.93.93,0,0,1,1,.66c.16.54-.09.94-.74,1.23A1,1,0,0,1,22.15,33.88Z"/><path class="cls-8" d="M40.86,49.61a1,1,0,1,1-.89-1A.94.94,0,0,1,40.86,49.61Z"/><path class="cls-8" d="M47.14,58.84a1,1,0,0,1-1-.89,1,1,0,0,1,.92-1,.94.94,0,1,1,0,1.88Z"/><path class="cls-8" d="M36.76,53.13a.94.94,0,0,1,0,1.88.94.94,0,1,1,0-1.88Z"/><path class="cls-8" d="M23.21,52.41a.94.94,0,1,1,0,1.88.9.9,0,0,1-.92-1A.92.92,0,0,1,23.21,52.41Z"/><path class="cls-8" d="M49.22,49.53l.2.37a1,1,0,0,1-1,1.27,1,1,0,0,1-.81-.64c0-.14,0-.29,0-.43C47.86,49.25,48.29,49.1,49.22,49.53Z"/><path class="cls-8" d="M22.64,48.76a1,1,0,0,1-1-1,.93.93,0,0,1,.93-.92.91.91,0,0,1,.95.89A1,1,0,0,1,22.64,48.76Z"/><path class="cls-8" d="M54.74,55.54a1,1,0,0,1-1,.94.91.91,0,0,1-.9-.94.93.93,0,0,1,1-.94A1,1,0,0,1,54.74,55.54Z"/><path class="cls-8" d="M33,56.84a.93.93,0,0,1-.9.95,1,1,0,0,1-1-.94.93.93,0,0,1,.92-.93A.89.89,0,0,1,33,56.84Z"/><path class="cls-8" d="M19.12,36.94a1,1,0,0,1-.9-1,.89.89,0,0,1,1-.88.94.94,0,0,1,.91,1A1,1,0,0,1,19.12,36.94Z"/><path class="cls-8" d="M20.16,41a1,1,0,0,1-.9-1,.9.9,0,0,1,1-.88,1,1,0,0,1,.92,1A1,1,0,0,1,20.16,41Z"/><path class="cls-8" d="M19.4,45.87a1,1,0,0,1-.9-1,.9.9,0,0,1,1-.87,1,1,0,0,1,.92,1A1,1,0,0,1,19.4,45.87Z"/><path class="cls-8" d="M41.53,59.89a1,1,0,0,1-.93-1,1,1,0,0,1,1-.9.94.94,0,0,1,0,1.88Z"/><path class="cls-7" d="M24,35.25c-.09-.13-.23-.11-.35-.13a.14.14,0,0,0,0-.09,20.8,20.8,0,0,1,3.59-4.86.7.7,0,0,0,.1-.23.77.77,0,0,1,.29.33c0,.18-.13.27-.24.38a12.77,12.77,0,0,0-1.49,1.71,14.38,14.38,0,0,0-1.81,2.88Z"/><path class="cls-7" d="M45.6,36a5.16,5.16,0,0,0-3.21,1l-.48.29a1.41,1.41,0,0,1-2.27-.63A9.79,9.79,0,0,1,38.71,33l.44,0a10.42,10.42,0,0,0,.71,3.11c.5,1.09,1,1.36,2,.71a8,8,0,0,1,1.79-.93,10.79,10.79,0,0,1,5.47-.14,8.31,8.31,0,0,0,3.44-.07A3.22,3.22,0,0,0,55,33.37a5.53,5.53,0,0,0,0-3,10.41,10.41,0,0,0-5.14-6.6,5.94,5.94,0,0,0-4.32-.51,7,7,0,0,0-2.88,1.68,12,12,0,0,0-2.32,2.9,5.37,5.37,0,0,0-1.07,3.45l-.53-.18a10.76,10.76,0,0,1,5.34-7.72,5.82,5.82,0,0,1,6.4.22,10.39,10.39,0,0,1,5.14,7.84c.34,2.7-1.09,4.64-4.23,4.85a28.46,28.46,0,0,1-4-.36c-.25,0-.5-.14-.74,0a1,1,0,0,0-.93,0l-.06-.07,0,.08Z"/><path class="cls-7" d="M39.32,41.63l0,0-.09-.12c0-.05-2.27-4.11-2.29-4.15a8.09,8.09,0,0,1-.9-4.87,14.92,14.92,0,0,0,0-2A4.59,4.59,0,0,0,35.2,28,1.92,1.92,0,0,0,34,27.12c0,.25.22.39.29.6a2.76,2.76,0,0,1,1.26,2.2,19.14,19.14,0,0,1,.1,3.71,7.19,7.19,0,0,0,1.07,4s2,3.76,2.08,3.74h0a6.6,6.6,0,0,1,.2,3.76,9.2,9.2,0,0,1-1.58,3.12,8.92,8.92,0,0,1-3.86,3,5,5,0,0,1-4.92-.55A5.48,5.48,0,0,1,26,47.51c-.17-.71-.88-1-1.37-1.45a6.09,6.09,0,0,1-2-3.48,10.65,10.65,0,0,1,.88-6.19L24,35.25c-.09-.13-.23-.11-.35-.13a13.17,13.17,0,0,0-1.54,4.81A7.08,7.08,0,0,0,25,47a1.45,1.45,0,0,1,.58.78,5.63,5.63,0,0,0,2.88,3.44A5.08,5.08,0,0,0,33,52a9.66,9.66,0,0,0,6.19-6A7,7,0,0,0,39.32,41.63Z"/><path class="cls-8" d="M34,27.12c0,.25.22.39.29.6-.13.23,0,.51-.21.73a.94.94,0,0,1-1.14.33.91.91,0,0,1-.58-1.12c.1-.22.35-.36.39-.63A1.69,1.69,0,0,1,34,27.12Z"/><path class="cls-8" d="M40.05,16.76a1,1,0,0,1,.92,1,1,1,0,0,1-1.9-.05A1,1,0,0,1,40.05,16.76Z"/><path class="cls-8" d="M57.74,38.85a1,1,0,1,1-1-1A1,1,0,0,1,57.74,38.85Z"/><path class="cls-8" d="M53.45,37.16a1,1,0,0,1,.93,1,1,1,0,0,1-1.9,0A1,1,0,0,1,53.45,37.16Z"/><path class="cls-8" d="M26.45,25.41a1,1,0,0,1-.94,1,1,1,0,0,1-.93-.92.94.94,0,0,1,.9-1A1,1,0,0,1,26.45,25.41Z"/><path class="cls-8" d="M34.61,25.26a1,1,0,0,1-.94-1,1,1,0,0,1,1.91,0A1,1,0,0,1,34.61,25.26Z"/><path class="cls-8" d="M38.64,20.73a1,1,0,0,1,.92.94,1,1,0,0,1-1,1,1,1,0,0,1,0-1.9Z"/><path class="cls-8" d="M58.15,28.13a1,1,0,0,1-1.9.05,1,1,0,0,1,.92-1A1,1,0,0,1,58.15,28.13Z"/><path class="cls-8" d="M59.94,36.11a.94.94,0,0,1-.95,1,.92.92,0,0,1-.92-.91,1,1,0,0,1,.91-1A1,1,0,0,1,59.94,36.11Z"/><path class="cls-8" d="M47.47,18.77a.94.94,0,1,1-1.88,0,.94.94,0,0,1,1.88,0Z"/><path class="cls-8" d="M57.6,33.5a.91.91,0,0,1-1-.9.94.94,0,0,1,1.88-.09A.91.91,0,0,1,57.6,33.5Z"/><path class="cls-8" d="M32.47,21.35a1,1,0,0,1-1.9,0,1,1,0,1,1,1.9,0Z"/><path class="cls-8" d="M35.49,18.32a1,1,0,0,1,0,1.9,1,1,0,0,1,0-1.9Z"/><path class="cls-8" d="M50.4,22.36a.93.93,0,0,1-1-.94,1,1,0,0,1,.93-.93.94.94,0,0,1,1,1A.89.89,0,0,1,50.4,22.36Z"/><path class="cls-8" d="M43.89,22.22a1,1,0,0,1,0-1.91,1,1,0,0,1,0,1.91Z"/><path class="cls-8" d="M22.49,30.68a.89.89,0,0,1-.93-1,.92.92,0,0,1,.93-.92,1,1,0,0,1,.94,1A.93.93,0,0,1,22.49,30.68Z"/><path class="cls-8" d="M31.19,24.76a.93.93,0,0,1-1,.93,1,1,0,0,1-.93-.94,1,1,0,0,1,1.9,0Z"/><path class="cls-8" d="M39,26.07A.91.91,0,0,1,38,27a.94.94,0,1,1,0-1.88A.91.91,0,0,1,39,26.07Z"/><path class="cls-8" d="M45.7,36a1,1,0,0,1,.93,0,.89.89,0,0,1,.42,1.15.87.87,0,0,1-1,.6.91.91,0,0,1-.82-.82A1.21,1.21,0,0,1,45.6,36h.1Z"/><path class="cls-8" d="M55.39,24.63a.9.9,0,0,1-.89.95.94.94,0,0,1-1-.91,1,1,0,0,1,1-1A.94.94,0,0,1,55.39,24.63Z"/><path class="cls-8" d="M38.74,31.09l.53.18c.62.46.58,1.11-.12,1.69l-.44,0a1,1,0,0,1-.9-.9C37.79,31.58,38.12,31.23,38.74,31.09Z"/><path class="cls-8" d="M27.6,30.27a.77.77,0,0,0-.29-.33.93.93,0,0,1,.14-1.25c.38-.32.82-.29,1.4.1,0,.11.09.23.14.34C29.06,30.11,28.5,30.51,27.6,30.27Z"/><path class="cls-7" d="M29,29.13l-.14-.34a9.06,9.06,0,0,1,3.29-1.7A1.53,1.53,0,0,1,32.7,27c0,.27-.29.41-.39.63-.13-.17-.27-.08-.42,0a12.67,12.67,0,0,0-1.64.74A7,7,0,0,1,29,29.13Z"/><path class="cls-6" d="M60.77,31.89a15,15,0,0,0-4.16-8.46A26.71,26.71,0,0,0,53,20.28a19.23,19.23,0,0,0-13-3.87,20.09,20.09,0,0,0-7.2,1.95,25.73,25.73,0,0,0-5.43,3.51,34.31,34.31,0,0,0-5.57,6c-.92,1.23-1.67,2.57-2.51,3.86,0,.1,0,.2,0,.3.23,0,.37.13.55.24a16,16,0,0,0,2.36,1.63c0-.66.25-1.06.79-1.14a.93.93,0,0,1,1,.66c.16.54-.09.94-.74,1.23l.38.4a20.8,20.8,0,0,1,3.59-4.86c.06-.05.07-.15.1-.23a.93.93,0,0,1,.14-1.25c.38-.32.82-.29,1.4.1a9.06,9.06,0,0,1,3.29-1.7A1.53,1.53,0,0,1,32.7,27a1.69,1.69,0,0,1,1.25.09A1.92,1.92,0,0,1,35.2,28,4.59,4.59,0,0,1,36,30.46a14.92,14.92,0,0,1,0,2,8.09,8.09,0,0,0,.9,4.87s2.26,4.11,2.29,4.15l.09.12,0,0c.3-.12.58.06.87.06.24-.61.58-.87,1.07-.82s.74.35.86,1a3.12,3.12,0,0,1,1.29.2l.29-.37a4.66,4.66,0,0,1,2.21-2.38l.1-.06c.1-.14.27-.11.41-.15.09-.24.31-.24.51-.28a.16.16,0,0,0,0-.07h0l.5,0c.26-.31.61-.11.91-.12s.35.11.45-.12h0l.4.07h.13l.56.23c.07.08.16.07.25.07h0a.28.28,0,0,0,.28.21l1.07,1.25a1.61,1.61,0,0,1,.65.67l.29.26a7.51,7.51,0,0,1,2.19-.51c1-.25,1.92-.39,2.87-.59a18.19,18.19,0,0,1,2.83-.57.36.36,0,0,1,0-.09c.08-1.08.12-2.17.25-3.25A16.07,16.07,0,0,0,60.77,31.89ZM22.49,30.68a.89.89,0,0,1-.93-1,.92.92,0,0,1,.93-.92,1,1,0,0,1,.94,1A.93.93,0,0,1,22.49,30.68Zm3-4.3a1,1,0,0,1-.93-.92.94.94,0,0,1,.9-1,1,1,0,0,1,1,.94A1,1,0,0,1,25.51,26.38Zm4.71-.69a1,1,0,0,1-.93-.94,1,1,0,0,1,1.9,0A.93.93,0,0,1,30.22,25.69Zm1.26-3.44a.94.94,0,0,1-.91-.93,1,1,0,1,1,1.9,0A.94.94,0,0,1,31.48,22.25Zm3.13,3a1,1,0,0,1-.94-1,1,1,0,0,1,1.91,0A1,1,0,0,1,34.61,25.26Zm.91-5a1,1,0,0,1,0-1.9,1,1,0,0,1,0,1.9Zm23,12.29a.94.94,0,1,1-1.88.09.94.94,0,0,1,1.88-.09Zm-1.33-5.32a1,1,0,0,1,1,.94,1,1,0,0,1-1.9.05A1,1,0,0,1,57.17,27.19ZM54.46,23.7a.94.94,0,0,1,.93.93.9.9,0,0,1-.89.95.94.94,0,0,1-1-.91A1,1,0,0,1,54.46,23.7Zm-4.09-3.21a.94.94,0,0,1,1,1,.89.89,0,0,1-.92.92.93.93,0,0,1-1-.94A1,1,0,0,1,50.37,20.49Zm-3.85-2.66a.93.93,0,0,1,.95.94.94.94,0,1,1-1.88,0A.94.94,0,0,1,46.52,17.83Zm-2.6,2.48a1,1,0,0,1,0,1.91,1,1,0,0,1,0-1.91Zm-3.87-3.55a1,1,0,0,1,.92,1,1,1,0,0,1-1.9-.05A1,1,0,0,1,40.05,16.76Zm-1.41,4a1,1,0,0,1,.92.94,1,1,0,0,1-1,1,1,1,0,0,1,0-1.9ZM37.08,26.1a1,1,0,0,1,1-1A.94.94,0,0,1,38,27,1,1,0,0,1,37.08,26.1Zm16.36,13a1,1,0,0,1-1-1,1,1,0,1,1,1.9,0A1,1,0,0,1,53.44,39.07Zm-2-2.79a28.46,28.46,0,0,1-4-.36c-.25,0-.5-.14-.74,0a.89.89,0,0,1,.42,1.15.87.87,0,0,1-1,.6.91.91,0,0,1-.82-.82A1.21,1.21,0,0,1,45.6,36a5.16,5.16,0,0,0-3.21,1l-.48.29a1.41,1.41,0,0,1-2.27-.63A9.79,9.79,0,0,1,38.71,33a1,1,0,0,1-.9-.9c0-.5.31-.85.93-1a10.76,10.76,0,0,1,5.34-7.72,5.82,5.82,0,0,1,6.4.22,10.39,10.39,0,0,1,5.14,7.84C56,34.13,54.53,36.07,51.39,36.28Zm5.37,3.51a1,1,0,1,1,1-.94A1,1,0,0,1,56.76,39.79ZM59,37.06a.92.92,0,0,1-.92-.91,1,1,0,0,1,.91-1,1,1,0,0,1,1,1A.94.94,0,0,1,59,37.06Z"/><path class="cls-8" d="M39.34,41.61l-.09-.12Z"/><path class="cls-5" d="M24,35.25h.09l2.09,1.25v.11c-.09.16-.17.33-.26.5a8.18,8.18,0,0,0-1.18,4.69,4.56,4.56,0,0,0,1.91,3.58,1.86,1.86,0,0,1,.77,1.13,2.46,2.46,0,0,0,1.05,1.43c.3.23.61.46.93.66a3.26,3.26,0,0,0,2.71.49c.4.57.81.78,1.27.58a1,1,0,0,0,.58-1.19.58.58,0,0,1,.29-.41A8.89,8.89,0,0,0,36,46.24a.71.71,0,0,0,.16-.78c-.1-.24.44-.28.55-.63A5.14,5.14,0,0,0,36.45,41a3.06,3.06,0,0,1,.85.12c.47.12,1,.2,1.43.3h0a6.6,6.6,0,0,1,.2,3.76,9.2,9.2,0,0,1-1.58,3.12,8.92,8.92,0,0,1-3.86,3,5,5,0,0,1-4.92-.55A5.48,5.48,0,0,1,26,47.51c-.17-.71-.88-1-1.37-1.45a6.09,6.09,0,0,1-2-3.48,10.65,10.65,0,0,1,.88-6.19Z"/><path class="cls-5" d="M38.73,41.38c-.48-.1-1-.18-1.43-.3a3.06,3.06,0,0,0-.85-.12l-.82-1.46a6.93,6.93,0,0,1-1.1-2.35,28.79,28.79,0,0,1-.06-2.94,4,4,0,0,0-.5-1.93,1.72,1.72,0,0,0-1.8-.84,6.87,6.87,0,0,0-3.44,1.9,15.06,15.06,0,0,0-2.58,3.15l-2.09-1.25a14.38,14.38,0,0,1,1.81-2.88,12.77,12.77,0,0,1,1.49-1.71c.11-.11.24-.2.24-.38.9.24,1.46-.16,1.39-1.14a7,7,0,0,0,1.26-.76,12.67,12.67,0,0,1,1.64-.74c.15-.05.29-.14.42,0a.91.91,0,0,0,.58,1.12A.94.94,0,0,0,34,28.45c.18-.22.08-.5.21-.73a2.76,2.76,0,0,1,1.26,2.2,19.14,19.14,0,0,1,.1,3.71,7.19,7.19,0,0,0,1.07,4A36.16,36.16,0,0,1,38.73,41.38Z"/><path class="cls-5" d="M39.15,33c.7-.58.74-1.23.12-1.69a5.37,5.37,0,0,1,1.07-3.45,12,12,0,0,1,2.32-2.9,7,7,0,0,1,2.88-1.68,5.94,5.94,0,0,1,4.32.51A10.41,10.41,0,0,1,55,30.35a5.53,5.53,0,0,1,0,3,3.22,3.22,0,0,1-2.47,2.27,8.31,8.31,0,0,1-3.44.07,10.79,10.79,0,0,0-5.47.14,8,8,0,0,0-1.79.93c-.94.65-1.49.38-2-.71A10.42,10.42,0,0,1,39.15,33Zm14.14-1.47a4.14,4.14,0,0,0-.24-1.63A8.62,8.62,0,0,0,50.48,26a5.08,5.08,0,0,0-3.32-1.38,4.51,4.51,0,0,0-3,1.13c-.32-.17-.61-.41-1-.27-.67.23-.84.83-.43,1.61a1.27,1.27,0,0,1-.28.54A6.66,6.66,0,0,0,41.23,30a8,8,0,0,0,.26,4.42c.36,1.11,1,1.32,2,.74a5.91,5.91,0,0,1,2.35-.84,12.4,12.4,0,0,1,3.11.2,7.08,7.08,0,0,0,2.56-.19,2.68,2.68,0,0,0,1.39-1C53.83,32.89,54,32.17,53.29,31.49Zm-7.42-7c.11,0,.2-.07.2-.19s-.09-.21-.23-.21a.2.2,0,0,0-.2.19C45.64,24.46,45.74,24.51,45.87,24.52Z"/><path class="cls-8" d="M45.7,36h-.1l0-.08Z"/><path class="cls-5" d="M53.41,43.66c-.45-.82-1-1.59-1.48-2.38h-.09c.17-.08.21.06.17-.19a.53.53,0,0,0-.11-.24,3.66,3.66,0,0,0-.38-.5,4.58,4.58,0,0,0-2.2-1.63,10.28,10.28,0,0,0-3.19.28A5,5,0,0,0,45,40c-.35.3-1.35,1.27-1.29,1.78,0,.14.06.26.24.27h0c-.12.56-.47,1-.64,1.57a12.06,12.06,0,0,0-.93,4.11,2.76,2.76,0,0,0,2.77,2.75,10.15,10.15,0,0,0,2.4-.34c.32-.85.75-1,1.68-.57,1.44-.62,2.89-1.23,4.38-1.74a1,1,0,0,0,.74-1A6,6,0,0,0,53.41,43.66ZM47.49,38.9l0,.12ZM52,47.17c-1.24.38-2.42.92-3.62,1.41a2.51,2.51,0,0,1-1.33.34c-.48-.13-.87.09-1.3,0a2.09,2.09,0,0,1-1.82-1.82,7.86,7.86,0,0,1,.82-3.73A5.16,5.16,0,0,1,45.49,42h.1c.46-.73,5.17,0,5.18,0,0,.16.09.3.19.34.37.16.5.45.71.7a2.42,2.42,0,0,1,.58,1.09,14.61,14.61,0,0,0,.57,1.48A1.19,1.19,0,0,1,52,47.17Z"/><path class="cls-8" d="M32.08,49.08A1.05,1.05,0,0,1,32.54,48a.94.94,0,0,1,1,0c.23.11.28.34.42.5a1,1,0,0,1-.58,1.19C32.89,49.86,32.48,49.65,32.08,49.08Z"/><path class="cls-4" d="M44.13,25.79a4.51,4.51,0,0,1,3-1.13A5.08,5.08,0,0,1,50.48,26a8.62,8.62,0,0,1,2.57,3.82,4.14,4.14,0,0,1,.24,1.63.9.9,0,0,0-1.17.11.89.89,0,0,0-.24,1,.93.93,0,0,0,1,.66,2.68,2.68,0,0,1-1.39,1,7.08,7.08,0,0,1-2.56.19,12.4,12.4,0,0,0-3.11-.2,5.91,5.91,0,0,0-2.35.84c-1,.58-1.61.37-2-.74A8,8,0,0,1,41.23,30a6.66,6.66,0,0,1,1.18-2.29,1.27,1.27,0,0,0,.28-.54,1.11,1.11,0,0,0,1.33,0C44.41,26.77,44.44,26.39,44.13,25.79Zm4.53,1.45a1,1,0,0,0,1-.94,1,1,0,0,0-2,0A1,1,0,0,0,48.66,27.24Zm-3.19,4.05a.8.8,0,0,0-.92.91.9.9,0,0,0,.88.95,1,1,0,0,0,1-1A.89.89,0,0,0,45.47,31.29Z"/><path class="cls-8" d="M52.87,33.26a.93.93,0,0,1-1-.66.89.89,0,0,1,.24-1,.9.9,0,0,1,1.17-.11C54,32.17,53.83,32.89,52.87,33.26Z"/><path class="cls-8" d="M44.13,25.79c.31.6.28,1-.11,1.36a1.11,1.11,0,0,1-1.33,0c-.41-.78-.24-1.38.43-1.61C43.52,25.38,43.81,25.62,44.13,25.79Z"/><path class="cls-8" d="M45.87,24.52c-.13,0-.23-.06-.23-.21a.2.2,0,0,1,.2-.19c.14,0,.24.07.23.21S46,24.5,45.87,24.52Z"/><path class="cls-8" d="M48.4,45.66a.85.85,0,0,1-.94-.92.91.91,0,0,1,.92-1,1,1,0,0,1,.95.91A.91.91,0,0,1,48.4,45.66Z"/><path class="cls-8" d="M47.65,42.57a.21.21,0,0,1,.22.22.2.2,0,0,1-.19.2.18.18,0,0,1-.21-.17C47.44,42.68,47.52,42.6,47.65,42.57Z"/><path class="cls-8" d="M48.2,40.66l0,0,0-.05Z"/><path class="cls-8" d="M48.4,40.65h.11C48.47,40.73,48.44,40.72,48.4,40.65Z"/><path class="cls-8" d="M26.24,42.31a.86.86,0,0,1,1,.91,1,1,0,0,1-.95,1,1,1,0,0,1-.92-1A.89.89,0,0,1,26.24,42.31Z"/><path class="cls-8" d="M33.53,40.23l.12.11Z"/><path class="cls-8" d="M33.74,34.75a.9.9,0,0,1-.91.92.94.94,0,0,1-1-.94,1,1,0,0,1,1-.94A.9.9,0,0,1,33.74,34.75Z"/><path class="cls-8" d="M29,37.37a.89.89,0,0,1-.91.91.94.94,0,0,1-1-.93,1,1,0,0,1,1-.94A.9.9,0,0,1,29,37.37Z"/><path class="cls-8" d="M34.19,42.7a.88.88,0,0,1-.91.91.92.92,0,0,1-1-.93,1,1,0,0,1,1-.94A.9.9,0,0,1,34.19,42.7Z"/><path class="cls-8" d="M48.66,27.24a1,1,0,0,1-1-.95,1,1,0,0,1,2,0A1,1,0,0,1,48.66,27.24Z"/><path class="cls-8" d="M45.47,31.29a.89.89,0,0,1,1,.87,1,1,0,0,1-1,1,.9.9,0,0,1-.88-.95A.8.8,0,0,1,45.47,31.29Z"/><path class="cls-9" d="M43.62,42.18s3.63-7.69,8.5-.83"/><path class="cls-4" d="M52.86,45.6a6.29,6.29,0,0,0-.42-1.29,4.43,4.43,0,0,0-.78-1.41,8.1,8.1,0,0,0-2.42-2.09,2.44,2.44,0,0,0-1.37-.32A4.13,4.13,0,0,0,45.49,42a5.16,5.16,0,0,0-.75,1.41,8.79,8.79,0,0,0-.82,3.73c.18,2.26,2.69,2.59,4.45,1.43A13.49,13.49,0,0,1,52,47.17a1.27,1.27,0,0,0,.8-.7A1.61,1.61,0,0,0,52.86,45.6Zm-5-2.81a.2.2,0,0,1-.19.2.18.18,0,0,1-.21-.17c0-.14.05-.22.18-.25A.21.21,0,0,1,47.87,42.79Zm.53,2.87a.85.85,0,0,1-.94-.92.91.91,0,0,1,.92-1,1,1,0,0,1,.95.91A.91.91,0,0,1,48.4,45.66Z"/></g></g></g></g></svg>