<svg xmlns="http://www.w3.org/2000/svg" viewBox="0 0 80.59 80.59"><defs><style>.cls-1{fill:none;stroke:#231f20;stroke-miterlimit:10;}.cls-1,.cls-2{opacity:0.61;}.cls-3{fill:#b5b7b7;}.cls-4{fill:#f9f5f1;}.cls-5{fill:#959898;}.cls-6{fill:#e18776;}.cls-7{fill:#a06555;}.cls-8{fill:#d25a5a;}.cls-9{fill:#bd302f;}.cls-10{fill:#754f3b;}.cls-11{fill:#cf4242;}.cls-12{fill:#c6c6c7;}.cls-13{fill:#8a5e48;}.cls-14{fill:#d1836c;}</style></defs><title>lower cholesterol</title><g id="Layer_2" data-name="Layer 2"><g id="Layer_103" data-name="Layer 103"><circle class="cls-1" cx="40.29" cy="40.29" r="39.79"/><g class="cls-2"><path class="cls-3" d="M14.59,60.38c-.06-.17-.34-.25-.28-.46.3-1,.1-2.09.33-3.14a34.29,34.29,0,0,1,1-4.15c.74-2.1,1.32-4.24,2.17-6.31a21,21,0,0,1,2.47-4.64,16.51,16.51,0,0,1,3.46-3.62c.58.46,1.27.14,1.91.27A16.57,16.57,0,0,1,30,40.1h0a13.44,13.44,0,0,0-5.36-1.25c-1.48,0-2.31,1.08-3.15,2.07A20.28,20.28,0,0,0,18,47.15,60.1,60.1,0,0,0,15.11,57a27.17,27.17,0,0,0-.25,3.49A.22.22,0,0,1,14.59,60.38Z"/><path class="cls-4" d="M31.87,34h0Z"/><path class="cls-4" d="M30.44,34.05h0Z"/><path class="cls-5" d="M62.77,30.6c.25.35.17.62-.28.82a1.51,1.51,0,0,1-1.76-.59c-.23-.46,0-.69.36-.86A1.26,1.26,0,0,1,62.77,30.6Z"/><path class="cls-5" d="M61.31,26.81a.73.73,0,0,1-1.13-.07c-.29-.46.07-.88.46-1.19a2.37,2.37,0,0,1,.35-.19c.39-.23.84-.37,1.1.1a.83.83,0,0,1-.44,1.18Z"/><path class="cls-6" d="M39.11,40.48a1.68,1.68,0,0,0,1,.18c-.29.64-1,.15-1.38.5h0a.55.55,0,0,1-.08-.43Z"/><path class="cls-5" d="M17.68,55.46c.37.73.27,1.35-.23,1.56s-.8,0-1-.47c-.31-.64-.25-1.44.19-1.58A.76.76,0,0,1,17.68,55.46Z"/><path class="cls-6" d="M35.62,41l-.06.23-.18,0a1.17,1.17,0,0,0-.82-.11c-.43,0-.16.26-.12.42l-.06,0-.07,0-.48-.78c0-.11-.08-.22-.11-.33l.14-.08a2.19,2.19,0,0,0,1.51.14C35.46,40.7,35.54,40.84,35.62,41Z"/><path class="cls-6" d="M36.37,40.81l.26-.18a1.92,1.92,0,0,0,1.25-.08c.3-.12.5-.14.62.19-.34.13-.68.25-1,.39S36.62,41.32,36.37,40.81Z"/><path class="cls-7" d="M32.22,40c.42.42,1,.26,1.5.48,0,.11.07.22.11.33l-.93.09-.26-.08c-.21-.22-.58-.16-.76-.43.07-.1.15-.2.22-.31Z"/><path class="cls-3" d="M30.75,45.24c.74.24,1.39-.52,2.2-.07a29.57,29.57,0,0,1,5.27,1.19A22.38,22.38,0,0,0,50,46.79a16.62,16.62,0,0,0,5.19-2.34,32,32,0,0,0,8.15-8.09,24.61,24.61,0,0,0,4.22-11.85c.49.2.54.57.46,1a26.87,26.87,0,0,1-2.74,8.66,29.63,29.63,0,0,1-10.48,11.1c-4.5,2.78-9.39,3.15-14.47,2.11-1.69-.34-3.34-.85-5-1.3-4.1-1.11-7.42.24-9.37,3.77a16,16,0,0,0-1.46,3.87A16.2,16.2,0,0,0,24,57.29c0,.63-.26.51-.61.28.24-3.72,1-7.24,3.64-10.11a5,5,0,0,1,1.15-.91c.19-.11.4-.71.59-.82A6.57,6.57,0,0,0,30.75,45.24Z"/><path class="cls-4" d="M41.12,34.58l-.07.21Z"/><path class="cls-4" d="M41.05,34.79,41,35Z"/><path class="cls-4" d="M35.68,34.46l-.22,0Z"/><path class="cls-4" d="M37.91,35l-.23-.06Z"/><path class="cls-4" d="M37.2,33.91l.06-.15C37.3,33.84,37.38,33.93,37.2,33.91Z"/><path class="cls-5" d="M39.67,43.74a1,1,0,0,1-1.13-.2c-.32-.4-.06-.78.23-1.06s.58-.61,1.08-.54c.31,0,.61.11.7.41a.78.78,0,0,1-.22.87C40.13,43.39,39.92,43.54,39.67,43.74Z"/><path class="cls-5" d="M58,34.61c-.41.25-.67.08-.86-.34a1.46,1.46,0,0,1,.65-1.7.66.66,0,0,1,1,.35A1.54,1.54,0,0,1,58,34.61Z"/><path class="cls-5" d="M51.14,40.23a.58.58,0,0,1-.78-.24,1.47,1.47,0,0,1,.55-1.79c.41-.23.73-.27,1,.24A1.58,1.58,0,0,1,51.14,40.23Z"/><path class="cls-5" d="M46.2,42.75a.66.66,0,0,1,1,.28,1.52,1.52,0,0,1-.65,1.69.66.66,0,0,1-1-.35A1.41,1.41,0,0,1,46.2,42.75Z"/><path class="cls-5" d="M57.18,37.6c.33.64.18,1.46-.32,1.67s-.68-.07-.86-.45a1.31,1.31,0,0,1,.25-1.72C56.82,36.78,57,37.21,57.18,37.6Z"/><path class="cls-8" d="M36.74,42.19a.29.29,0,0,1-.43-.14v0l.43.14Z"/><path class="cls-5" d="M19.23,52.53a1.12,1.12,0,0,1-1.18.07c-.27-.12-.68-.19-.57-.64s.32-.81.82-.84a2.94,2.94,0,0,1,.93.12.69.69,0,0,1,.5.65C19.77,52.26,19.53,52.4,19.23,52.53Z"/><path class="cls-9" d="M23.1,42.85c-.25.27-.71.43-.45.93-.35.15-.67.56-1.07.22a.91.91,0,0,1-.31-.94c.14-.44.3-.94.82-1.09C22.84,41.75,22.94,42.35,23.1,42.85Z"/><path class="cls-9" d="M21.73,50a.69.69,0,0,1-1.06-.31c-.32-.62-.48-1.24.18-1.77l.27-.13.51.28.22.09.15.27c-.3.15-.63.28-.36.72h0C21.4,49.47,21.58,49.74,21.73,50Z"/><path class="cls-9" d="M27.9,43.09c-.24-.82-.73-.55-1.23-.28a.53.53,0,0,1,.08-.82A1.34,1.34,0,0,1,28,41.54a.88.88,0,0,1,.66.73C28.81,42.88,28.21,42.87,27.9,43.09Z"/><path class="cls-8" d="M23.27,46.7a.3.3,0,0,1,.43.15h0a.33.33,0,0,1-.44-.1Z"/><path class="cls-10" d="M40.6,35.87l.23,0,.74.32c-.19.55-.65.25-1,.3l-.09-.3Z"/><path class="cls-11" d="M34.61,43.62a.29.29,0,0,1,0-.34l.14.29Z"/><path class="cls-12" d="M66.53,23.62a1.21,1.21,0,0,0-.69-.35,4.63,4.63,0,0,1,0,1.89,22.34,22.34,0,0,1-4.92,11.65,29.91,29.91,0,0,1-5.56,5.33,16.92,16.92,0,0,1-14.55,2.94c-1.1-.24-2.19-.51-3.28-.8-2.16-.56-4.46-1.17-6.72-.71-1.19.25-2.1-.08-3.2.45a8.37,8.37,0,0,0-.79.41,9.84,9.84,0,0,1-1,1.65,9.44,9.44,0,0,0-1.47,2,5.48,5.48,0,0,1-.38.6c-.12.17-.37.32-.41.54s0,.18,0,.28a1.48,1.48,0,0,1-.23.45,5.57,5.57,0,0,0-.53,1.48c-.17.58-.34,1.16-.48,1.75s-.31,1.4-.42,2.11c0,.2-.21,2.15-.25,2.16l.35-.06,1.51.17c-.26,0,.72-4.68.85-5.1a13.91,13.91,0,0,1,2.42-4.58,8.48,8.48,0,0,1,3.52-2.29c2.63-1,5.44.06,8,.76A22.38,22.38,0,0,0,50,46.79a16.62,16.62,0,0,0,5.19-2.34,32,32,0,0,0,8.15-8.09,24.61,24.61,0,0,0,4.22-11.85A2.37,2.37,0,0,0,66.53,23.62ZM27.91,46.76v-.08h0Zm4.57-2.44v0Z"/><path class="cls-13" d="M47.88,35.87l.18.38c-.18.31-.54.25-.81.39s-.65-.15-.82.26a.6.6,0,0,1-.72,0c.07-.1,0-.15-.08-.15h0l-.15-.31Z"/><path class="cls-10" d="M45.49,36.46l.15.31a2.08,2.08,0,0,1-.92.26.41.41,0,0,0-.09-.1l-.21-.45.76-.12Z"/><path class="cls-13" d="M48.41,35.55l.12.05a.35.35,0,0,1-.36.12Z"/><path class="cls-13" d="M43.57,36.53l.63-.1.22,0,.21.45-.86,0Z"/><path class="cls-7" d="M52.9,33.06a.3.3,0,0,1-.12.44A.29.29,0,0,1,52.9,33.06Z"/><path class="cls-14" d="M54.23,33.51l0,0-.05.05,0,0S54.22,33.52,54.23,33.51Z"/><path class="cls-11" d="M30.93,42.7c.05.27.41.55.08.72s-.4-.26-.49-.47-.48-.52-.07-.7S30.75,42.59,30.93,42.7Z"/><path class="cls-6" d="M32.1,40.11c-.07.11-.15.21-.22.31-.64.38-1,0-1.16-.52C31.24,39.56,31.6,40.3,32.1,40.11Z"/><path class="cls-3" d="M64.55,23.31a7.84,7.84,0,0,1-5.2.54l-.15.09a19.18,19.18,0,0,1-2.13,6.47c-.11.22-1.31,2.09-1.59,2.41s-.91.75-1.3,1.2a11.07,11.07,0,0,1-1.35,1.61,15.84,15.84,0,0,1-3.63,2.16,21.55,21.55,0,0,1-2,.73C46.09,38.83,38,36.16,32,35.73a13.77,13.77,0,0,0-7.12,1.61c-1.64.67-2.73,2.38-3.56,3.38A20.77,20.77,0,0,0,18,47.15,60.1,60.1,0,0,0,15.11,57a27.17,27.17,0,0,0-.25,3.49,2.52,2.52,0,0,0,2.41-.92,6.34,6.34,0,0,1,4.29-2.11c-.06,0,.53-3.65.6-4,.17-.71.35-1.43.58-2.13a16.57,16.57,0,0,1,1.31-2.8,27.6,27.6,0,0,1,1.72-2.49,7.57,7.57,0,0,1,2.75-1.84c.42-.18,1.52-.51,1.66-.54a15.65,15.65,0,0,1,6,.27l1.54.4c1,.26,2,.51,3,.73a16.92,16.92,0,0,0,14.55-2.94,29.91,29.91,0,0,0,5.56-5.33,22.34,22.34,0,0,0,4.92-11.65,4.63,4.63,0,0,0,0-1.89A3,3,0,0,0,64.55,23.31ZM17.68,55.46c.37.73.27,1.35-.23,1.56s-.8,0-1-.47c-.31-.64-.25-1.44.19-1.58A.76.76,0,0,1,17.68,55.46Zm2.05-3.57c0,.37-.2.51-.5.64a1.12,1.12,0,0,1-1.18.07c-.27-.12-.68-.19-.57-.64s.32-.81.82-.84a2.94,2.94,0,0,1,.93.12A.69.69,0,0,1,19.73,51.89ZM22.1,50c.27-.09.54-.28.81-.19C22.64,49.71,22.37,49.9,22.1,50Zm-.47-1.91.22.09.15.27c-.3.15-.63.28-.36.72-.24.31-.06.58.09.85a.69.69,0,0,1-1.06-.31c-.32-.62-.48-1.24.18-1.77h0l.27-.13a.84.84,0,0,1-.36-.51.84.84,0,0,0,.36.51l.51.28a6.51,6.51,0,0,1,.85-.4A6.51,6.51,0,0,0,21.63,48.08Zm1.47-5.23c-.25.27-.71.43-.45.93h0c-.35.15-.67.56-1.07.22S22.94,42.35,23.1,42.85Zm4.8.24c-.24-.82-.73-.55-1.23-.28a.45.45,0,0,0-.17.28.45.45,0,0,1,.17-.28.53.53,0,0,1,.08-.82A1.34,1.34,0,0,1,28,41.54C28.42,41.65,28.21,42.87,27.9,43.09Zm12.65-.74a.78.78,0,0,1-.22.87c-.2.17-.41.32-.66.52a1,1,0,0,1-1.13-.2c-.32-.4-.06-.78.23-1.06s.58-.61,1.08-.54C40.16,42,40.46,42.05,40.55,42.35Zm6,2.37a.66.66,0,0,1-1-.35,1.41,1.41,0,0,1,.63-1.62.66.66,0,0,1,1,.28A1.52,1.52,0,0,1,46.55,44.72Zm4.59-4.49a.58.58,0,0,1-.78-.24,1.47,1.47,0,0,1,.55-1.79c.41-.23.73-.27,1,.24A1.58,1.58,0,0,1,51.14,40.23Zm6-2.63c.33.64.18,1.46-.32,1.67s-.68-.07-.86-.45a1.31,1.31,0,0,1,.25-1.72C56.82,36.78,57,37.21,57.18,37.6Zm.78-3c-.41.25-.67.08-.86-.34a1.46,1.46,0,0,1,.65-1.7.66.66,0,0,1,1,.35A1.54,1.54,0,0,1,58,34.61Zm4.53-3.19a1.51,1.51,0,0,1-1.76-.59c-.23-.46,0-.69.36-.86a1.26,1.26,0,0,1,1.68.63C63,31,62.94,31.22,62.49,31.42Zm-.84-4.78-.34.17a.73.73,0,0,1-1.13-.07c-.29-.46.07-.88.46-1.19a2.37,2.37,0,0,1,.35-.19c.39-.23.84-.37,1.1.1A.83.83,0,0,1,61.65,26.64Z"/><path class="cls-13" d="M27.91,46.68v0Z"/><path class="cls-12" d="M58.91,23.73a5.17,5.17,0,0,0-1.23-.65,4.19,4.19,0,0,0-.53,2,21.12,21.12,0,0,1-2.08,5.28c-.18.21-.48.37-.32.73l-.28.15a.29.29,0,0,0,0,.33l-.12.08a.37.37,0,0,0-.25.31c-.29.13-.42.49-.75.56a1.34,1.34,0,0,0,.06.12c-.16.16-.43.2-.48.47a.3.3,0,0,1-.12.44h0l-.8.57-.79.64c-.6.44-3.67,1.79-3.94,1.93s-.65-.15-.82.26a.6.6,0,0,1-.72,0l-.07-.14a2.12,2.12,0,0,1-.92.26.41.41,0,0,0-.09-.1l-.86,0-.2-.41a.28.28,0,0,1-.37,0l-.88-.21c-.3.13-.46-.28-.75-.18-.19.55-.65.25-1,.3l-.09-.3c-.24.15-.48,0-.71,0l-.35,0a6,6,0,0,0-2.25-.73,21.16,21.16,0,0,0-9.06-.5,13.84,13.84,0,0,0-9.27,6.53,43.62,43.62,0,0,0-2.65,5.24C14.62,50,14,53.59,13.25,57.15a6.57,6.57,0,0,0-.11,2.76,2.37,2.37,0,0,0,1.45.47c-.06-.17-.34-.25-.28-.46.3-1,.1-2.09.33-3.14a34.29,34.29,0,0,1,1-4.15c.74-2.1,1.32-4.24,2.17-6.31a21,21,0,0,1,2.47-4.64,16.51,16.51,0,0,1,3.46-3.62,20.83,20.83,0,0,1,3.13-1.49A15.62,15.62,0,0,1,32.74,36a17.75,17.75,0,0,1,2.91.42c1.27.29,2.47.81,3.74,1.1.9.2,1.81.36,2.71.5s1.86.43,2.8.61a7.27,7.27,0,0,0,4-.32,14,14,0,0,0,3.75-2.43,22.21,22.21,0,0,0,2.43-2.42,17.12,17.12,0,0,0,2.74-4.5,19.37,19.37,0,0,0,.89-2.45c.12-.41.22-.83.31-1.24,0-.26.32-1,.21-1.28l-.08-.16ZM39.41,36.49l-.47.27.47-.27Zm0-.13a.26.26,0,0,1,0-.15A.26.26,0,0,0,39.37,36.36Zm15.77-4.17,0-.12h0Zm.3-1.24a.65.65,0,0,0,.22.11A.65.65,0,0,1,55.44,31Z"/><polygon class="cls-12" points="43.57 36.53 43.57 36.54 43.58 36.54 43.57 36.53"/><polygon class="cls-12" points="45.63 36.76 45.64 36.77 45.64 36.77 45.63 36.76"/><path class="cls-10" d="M45.71,36.91l-.08-.15C45.76,36.76,45.78,36.81,45.71,36.91Z"/><path class="cls-13" d="M43.2,36.54c.12,0,.25-.12.38,0A.29.29,0,0,1,43.2,36.54Z"/><path class="cls-6" d="M36.17,40.72l.2.06Z"/><path class="cls-3" d="M57.1,22.64c-.14.05-.17.23-.18.37a16.74,16.74,0,0,1-2.24,6.76,17.85,17.85,0,0,1-1.47,2.09,13.5,13.5,0,0,1-1.75,1.87,11.48,11.48,0,0,1-3,1.76l-.7.25a18.22,18.22,0,0,1-1.9.48,7.92,7.92,0,0,1-3.9-.1l-1.24-.37c-.67-.2-1.35-.39-2-.57s-1.2-.31-1.8-.44a28.61,28.61,0,0,0-3.67-.59,17.63,17.63,0,0,0-7.32.77,12.83,12.83,0,0,0-3.46,1.85,19.08,19.08,0,0,0-5.77,7.49,51.37,51.37,0,0,0-2.54,7,32.64,32.64,0,0,0-1.55,7.83c0,.45,0,.8.59.78a6.57,6.57,0,0,1,.11-2.76C14,53.59,14.62,50,16.2,46.66a43.62,43.62,0,0,1,2.65-5.24,13.84,13.84,0,0,1,9.27-6.53,21.84,21.84,0,0,1,8.48.35,14.4,14.4,0,0,1,2.12.56c.24.09.48.19.73.27s3,.91,3.3.89a12.15,12.15,0,0,0,3.44,0,11.78,11.78,0,0,0,3.41-1.17,16.09,16.09,0,0,0,2.48-1.54,10.59,10.59,0,0,0,1.57-1.64,17.53,17.53,0,0,0,2.18-3.46c.28-.59.45-1.39.68-2a13.78,13.78,0,0,0,.7-2.59,3,3,0,0,1,.47-1.51,1.83,1.83,0,0,1-.24-.31A.31.31,0,0,0,57.1,22.64Z"/><path class="cls-13" d="M52.84,32.4l.29-.43"/><path class="cls-5" d="M27.33,43.27c-.4,0-.84-.11-1-.58s.22-.75.59-.91a1.27,1.27,0,0,1,1.2-.12c.28.14.54.32.51.63a.77.77,0,0,1-.51.73C27.88,43.11,27.62,43.18,27.33,43.27Z"/><path class="cls-5" d="M26.52,39.14c-.39,0-.83-.11-1-.58s.21-.75.58-.91a1.25,1.25,0,0,1,1.2-.12c.28.14.54.32.51.63a.76.76,0,0,1-.51.73C27.07,39,26.82,39.05,26.52,39.14Z"/><path class="cls-5" d="M36.51,39.86a1,1,0,0,1-1.15,0c-.37-.35-.17-.75.08-1.07s.48-.69,1-.7c.31,0,.62,0,.75.31a.77.77,0,0,1-.09.89C36.91,39.45,36.72,39.63,36.51,39.86Z"/><path class="cls-5" d="M22.93,43.69c-.19.34-.45.7-.94.65s-.59-.51-.58-.92a1.28,1.28,0,0,1,.39-1.14c.25-.19.52-.35.79-.2a.79.79,0,0,1,.45.78C23,43.12,23,43.38,22.93,43.69Z"/><path class="cls-5" d="M22.11,49.22c-.06.38-.19.81-.67.92s-.72-.29-.85-.67a1.27,1.27,0,0,1,0-1.21c.17-.26.37-.5.68-.44a.77.77,0,0,1,.68.58C22,48.65,22.05,48.91,22.11,49.22Z"/><path class="cls-5" d="M32.3,39.49c.26.35.18.62-.27.82a1.51,1.51,0,0,1-1.77-.59c-.22-.45,0-.69.37-.86A1.24,1.24,0,0,1,32.3,39.49Z"/></g></g></g></svg>