<svg xmlns="http://www.w3.org/2000/svg" viewBox="0 0 80.59 80.59"><defs><style>.cls-1{isolation:isolate;}.cls-2{fill:none;stroke:#231f20;stroke-miterlimit:10;}.cls-2,.cls-3,.cls-4,.cls-6{opacity:0.61;}.cls-3,.cls-6,.cls-7{fill:#b5b7b7;}.cls-5{fill:#ceccc9;}.cls-6{mix-blend-mode:multiply;}</style></defs><title>skin</title><g class="cls-1"><g id="Layer_2" data-name="Layer 2"><g id="Layer_103" data-name="Layer 103"><circle class="cls-2" cx="40.29" cy="40.29" r="39.79"/><path class="cls-3" d="M17.78,43.4s13.57-3.41,23-3a100.9,100.9,0,0,1,22.7,4L63.08,46a84.62,84.62,0,0,0-22.33-4.08,69.14,69.14,0,0,0-22.75,3Z"/><path class="cls-3" d="M40.9,20.13c-1.39,4.13-5.85,8.41-4.78,11.72s4.78,3.23,4.78,3.23,3.73.09,4.79-3.23S42.3,24.26,40.9,20.13Z"/><g class="cls-4"><path class="cls-5" d="M43.94,31.26a1.2,1.2,0,1,1-1.2-1.2A1.19,1.19,0,0,1,43.94,31.26Z"/></g><path class="cls-6" d="M40.9,21.78a21,21,0,0,1-2.38,4.84c-.91,1.49-2.31,5.05.4,7a3.93,3.93,0,0,0,4.41-.18c-2.43.63-5.33-.88-4-3.88C40.74,26.29,41.14,24.4,40.9,21.78Z"/><path class="cls-3" d="M28.63,26.15c-1,3-4.29,6.16-3.51,8.6a3.79,3.79,0,0,0,7,0C32.93,32.31,29.66,29.18,28.63,26.15Z"/><g class="cls-4"><path class="cls-5" d="M31,34.21a.82.82,0,1,1-.82-.82A.82.82,0,0,1,31,34.21Z"/></g><path class="cls-6" d="M28.61,27.75A15,15,0,0,1,27,31.07c-.62,1-1.58,3.47.27,4.79a2.69,2.69,0,0,0,3-.13c-1.66.44-3.66-.6-2.75-2.66A9.66,9.66,0,0,0,28.61,27.75Z"/><path class="cls-3" d="M52.59,26c-1,3-4.31,6.19-3.53,8.64a3.81,3.81,0,0,0,7.06,0C56.91,32.22,53.62,29.07,52.59,26Z"/><g class="cls-4"><path class="cls-5" d="M55,34.13a.83.83,0,1,1-.82-.83A.82.82,0,0,1,55,34.13Z"/></g><path class="cls-6" d="M52.64,27.64A14.47,14.47,0,0,1,51,31c-.62,1-1.59,3.47.27,4.81a2.7,2.7,0,0,0,3-.13c-1.67.43-3.67-.6-2.76-2.68A9.65,9.65,0,0,0,52.64,27.64Z"/><path class="cls-3" d="M51.64,46.72V60.16a23.72,23.72,0,0,0,3.42-2.29V47.44Q53.47,47.07,51.64,46.72Z"/><path class="cls-3" d="M47.37,46V62a23.5,23.5,0,0,0,3.35-1.31V46.56C49.66,46.37,48.54,46.19,47.37,46Z"/><path class="cls-3" d="M42.72,45.54V62.81a21.81,21.81,0,0,0,3.63-.59V45.9Q44.6,45.69,42.72,45.54Z"/><path class="cls-3" d="M59.46,53.12V48.59c-1-.28-2.09-.59-3.38-.91V57A22.66,22.66,0,0,0,59.46,53.12Z"/><path class="cls-3" d="M60.3,52c.48-.85.92-1.72,1.32-2.62,0,0,0,0,0,0-.39-.13-.84-.28-1.34-.43Z"/><g class="cls-4"><path class="cls-7" d="M27.73,46.45V59a21.26,21.26,0,0,1-3.18-2.13V47.12C25.53,46.89,26.6,46.67,27.73,46.45Z"/><path class="cls-7" d="M20.46,52.41V48.19c.89-.26,1.94-.55,3.13-.84V56A21.06,21.06,0,0,1,20.46,52.41Z"/><path class="cls-7" d="M19.67,51.37a23,23,0,0,1-1.22-2.43l0,0c.36-.12.77-.26,1.24-.4Z"/></g><path class="cls-3" d="M36.91,62.54V45.33c-1.24,0-2.45.08-3.62.18V61.59A22.92,22.92,0,0,0,36.91,62.54Z"/><path class="cls-3" d="M32.26,61.2V45.6c-1.16.12-2.29.26-3.35.42V59.48A23,23,0,0,0,32.26,61.2Z"/><path class="cls-3" d="M40.9,62.89l.8,0V45.46l-1.64-.09c-.71,0-1.43,0-2.13,0V62.69A22.56,22.56,0,0,0,40.9,62.89Z"/></g></g></g></svg>