<svg xmlns="http://www.w3.org/2000/svg" viewBox="0 0 80.59 80.59"><defs><style>.cls-1{isolation:isolate;}.cls-2{fill:none;stroke:#231f20;}.cls-2,.cls-4,.cls-5{stroke-miterlimit:10;}.cls-2,.cls-3{opacity:0.61;}.cls-4,.cls-5{fill:#b5b7b7;stroke:#95979a;stroke-width:0.5px;}.cls-4{mix-blend-mode:multiply;}</style></defs><title>strong muscle</title><g class="cls-1"><g id="Layer_2" data-name="Layer 2"><g id="Layer_103" data-name="Layer 103"><circle class="cls-2" cx="40.29" cy="40.29" r="39.79"/><g class="cls-3"><path class="cls-4" d="M40.59,58.75a7.65,7.65,0,0,1-6.83-3.61c-.16-.22-.41-.56-.16-.77s.52.14.71.3a11.93,11.93,0,0,0,3.56,2,9.18,9.18,0,0,0,4.32.26,30.35,30.35,0,0,0,6.69-1.67c.22-.07.52-.27.64,0s-.2.41-.4.55a16.86,16.86,0,0,1-7,2.92A8.12,8.12,0,0,1,40.59,58.75Z"/><path class="cls-5" d="M61.75,51.7a9.05,9.05,0,0,0-2.88-5.32A7.41,7.41,0,0,0,48.36,47a.86.86,0,0,1-1.17.2,27.93,27.93,0,0,0-3.37-1.58,9.88,9.88,0,0,0-5.59-.46,8.9,8.9,0,0,0-3.88,2.36c-.35.34-.65,1-1.25.73s-.17-.84-.19-1.28a23.55,23.55,0,0,0-.54-5C32,40.46,31,39.55,30.43,38.2c-.74-1.86.15-4.65.57-6.51.22-1,.44-1.93.65-2.89.08-.39.25-.62.69-.52a12.91,12.91,0,0,0,3.51.11,4.09,4.09,0,0,0,3.19-2c0-.07.18-.08.28-.12,1.83-.61,3.69-.61,4.37-2.76a2.55,2.55,0,0,0-.53-4.11c-1.47-.92-2.85-2-4.3-2.95a6.7,6.7,0,0,0-2.09-1.16,3.81,3.81,0,0,0-3.07.8c-2.16,1.45-4.27,3-6.45,4.38a4.89,4.89,0,0,0-1.92,2.16c-.47,1.06-1,2.11-1.5,3.16a53,53,0,0,0-4,10.28,66.45,66.45,0,0,0-1.69,9.11,31.23,31.23,0,0,0,.54,10.69,2.24,2.24,0,0,0,.9,1.4,14.18,14.18,0,0,0,4.54,2.21,51.42,51.42,0,0,1,7.57,2.65,22.59,22.59,0,0,0,19.5.4,1.22,1.22,0,0,1,1-.11,9.8,9.8,0,0,0,3.32.41,5.73,5.73,0,0,0,5.25-3A11.58,11.58,0,0,0,61.75,51.7ZM22.56,42.5c-.11,0-.74,0-.32,0l.32,0a.2.2,0,0,0,0,.11A.2.2,0,0,1,22.56,42.5ZM49.12,55.82a16.86,16.86,0,0,1-7,2.92,8.12,8.12,0,0,1-1.48,0,7.65,7.65,0,0,1-6.83-3.61c-.16-.22-.41-.56-.16-.77s.52.14.71.3a11.93,11.93,0,0,0,3.56,2,9.18,9.18,0,0,0,4.32.26,30.35,30.35,0,0,0,6.69-1.67c.22-.07.52-.27.64,0S49.32,55.68,49.12,55.82Z"/></g></g></g></g></svg>